<svg xmlns="http://www.w3.org/2000/svg" viewBox="0 0 512 512"><defs><style>.cls-1{fill:#8b9ed9;}.cls-2{fill:#d4e85e;}.cls-3{fill:#8ed685;}.cls-4{fill:#7ab570;}.cls-5{fill:#db3a46;}.cls-6{fill:#9b112e;}.cls-7{fill:#da6976;}.cls-8{fill:#72392f;}.cls-9{fill:#5c2f2a;}.cls-10{fill:#8e463e;}.cls-11{fill:#253d3a;}.cls-12{fill:#d2e65e;}.cls-13{fill:#f7f9d7;}.cls-14{fill:#76c27d;}.cls-15{fill:#313d74;}.cls-16{fill:#2c375f;}.cls-17{fill:#40518d;}.cls-18{fill:#99112e;}.cls-19{fill:#d93a46;}.cls-20{fill:#d9727e;}.cls-21{fill:#ad7d55;}.cls-22{fill:#956e4c;}</style></defs><title>Food</title><g id="BULINE"><circle class="cls-1" cx="256" cy="256" r="256"/></g><g id="Icons"><rect class="cls-2" x="345.92" y="270.5" width="144.73" height="16.1" rx="8.05"/><rect class="cls-3" x="175.96" y="249.87" width="16.55" height="57.36" rx="5.94"/><path class="cls-4" d="M188.37,307a4.61,4.61,0,0,1-1.4.21H181.5c-3.06,0-5.54-2.85-5.54-6.37V256.25c0-3.53,2.48-6.38,5.54-6.38H187a4.94,4.94,0,0,1,1.4.21,6.27,6.27,0,0,0-4.13,6.17v44.61A6.26,6.26,0,0,0,188.37,307Z"/><circle class="cls-5" cx="157.34" cy="278.55" r="26.9"/><path class="cls-6" d="M166.46,303.87a26.9,26.9,0,1,1,0-50.64,26.92,26.92,0,0,0,0,50.64Z"/><circle class="cls-7" cx="166.46" cy="272.79" r="9.13"/><path class="cls-8" d="M134.76,288.76v-15a17.78,17.78,0,0,0-10.12-16A8.64,8.64,0,0,0,107.72,256H92.13a8.65,8.65,0,0,0-16.61,0H55a8.65,8.65,0,0,0-17.3,0c0,.27,0,.53,0,.79a17.78,17.78,0,0,0-12.53,17v6.47a8.64,8.64,0,0,0,.64,17,17.8,17.8,0,0,0,11.89,12.29c0,.26,0,.52,0,.79a8.65,8.65,0,0,0,17.3,0H93.64a8.64,8.64,0,0,0,15,0H117a17.75,17.75,0,0,0,12.57-5.2,8.64,8.64,0,1,0,5.21-16.29Z"/><path class="cls-9" d="M142,297.28a8.63,8.63,0,0,1-12.43,7.77,17.71,17.71,0,0,1-12.56,5.2h-8.37a8.64,8.64,0,0,1-15,0H55a8.65,8.65,0,0,1-17.3,0c0-.27,0-.53,0-.79a17.82,17.82,0,0,1-11.89-12.29,8.64,8.64,0,0,1-.64-17v-2.86c.21.05.42.1.64.13a17.82,17.82,0,0,0,11.89,12.29c0,.26,0,.52,0,.79a8.65,8.65,0,0,0,17.3,0H93.64a8.64,8.64,0,0,0,15,0H117a17.71,17.71,0,0,0,12.56-5.2,8.85,8.85,0,0,0,5.22.76v2.64A8.64,8.64,0,0,1,142,297.28Z"/><circle class="cls-9" cx="92.96" cy="275.65" r="8.65"/><circle class="cls-10" cx="130.44" cy="269.89" r="8.65"/><circle class="cls-10" cx="51.15" cy="274.69" r="8.65"/><rect class="cls-3" x="340.51" y="249.87" width="16.55" height="57.36" rx="5.94"/><path class="cls-4" d="M352.92,307a4.65,4.65,0,0,1-1.4.21h-5.47c-3.07,0-5.54-2.85-5.54-6.37V256.25c0-3.53,2.47-6.38,5.54-6.38h5.47a5,5,0,0,1,1.4.21,6.28,6.28,0,0,0-4.14,6.17v44.61A6.27,6.27,0,0,0,352.92,307Z"/><circle class="cls-5" cx="321.88" cy="278.55" r="26.9"/><path class="cls-6" d="M331,303.87a26.9,26.9,0,1,1,0-50.64,26.92,26.92,0,0,0,0,50.64Z"/><circle class="cls-7" cx="331.01" cy="272.79" r="9.13"/><path class="cls-8" d="M299.31,288.76v-15a17.78,17.78,0,0,0-10.12-16A8.64,8.64,0,0,0,272.27,256H256.68a8.65,8.65,0,0,0-16.61,0H219.54a8.65,8.65,0,1,0-17.29,0,6.85,6.85,0,0,0,0,.79,17.79,17.79,0,0,0-12.54,17v6.47a8.64,8.64,0,0,0,.65,17,17.78,17.78,0,0,0,11.89,12.29,6.85,6.85,0,0,0,0,.79,8.65,8.65,0,1,0,17.29,0h38.65a8.64,8.64,0,0,0,15,0h8.37a17.71,17.71,0,0,0,12.56-5.2,8.64,8.64,0,1,0,5.22-16.29Z"/><path class="cls-9" d="M306.52,297.28a8.66,8.66,0,0,1-8.65,8.65,8.54,8.54,0,0,1-3.78-.88,17.72,17.72,0,0,1-12.56,5.2h-8.37a8.64,8.64,0,0,1-15,0H219.54a8.65,8.65,0,1,1-17.29,0c0-.27,0-.53,0-.79a17.81,17.81,0,0,1-11.88-12.29,8.64,8.64,0,0,1-.65-17v-2.86a6.23,6.23,0,0,0,.65.13,17.81,17.81,0,0,0,11.88,12.29c0,.26,0,.52,0,.79a8.65,8.65,0,1,0,17.29,0h38.65a8.64,8.64,0,0,0,15,0h8.37a17.72,17.72,0,0,0,12.56-5.2,8.85,8.85,0,0,0,5.22.76v2.64A8.65,8.65,0,0,1,306.52,297.28Z"/><circle class="cls-9" cx="257.5" cy="275.65" r="8.65"/><circle class="cls-10" cx="294.98" cy="269.89" r="8.65"/><circle class="cls-10" cx="215.7" cy="274.69" r="8.65"/><rect class="cls-2" x="360.92" y="224.25" width="144.73" height="16.1" rx="8.05"/><rect class="cls-3" x="190.96" y="203.62" width="16.55" height="57.36" rx="5.94"/><path class="cls-4" d="M203.37,260.77a4.61,4.61,0,0,1-1.4.21H196.5c-3.06,0-5.54-2.85-5.54-6.37V210c0-3.53,2.48-6.38,5.54-6.38H202a4.94,4.94,0,0,1,1.4.21,6.27,6.27,0,0,0-4.13,6.17v44.61A6.26,6.26,0,0,0,203.37,260.77Z"/><circle class="cls-5" cx="172.34" cy="232.3" r="26.9"/><path class="cls-6" d="M181.46,257.62a26.9,26.9,0,1,1,0-50.64,26.92,26.92,0,0,0,0,50.64Z"/><circle class="cls-7" cx="181.46" cy="226.54" r="9.13"/><path class="cls-8" d="M149.76,242.51v-15a17.78,17.78,0,0,0-10.12-16,8.64,8.64,0,0,0-16.92-1.75H107.13a8.65,8.65,0,0,0-16.61,0H70a8.65,8.65,0,0,0-17.3,0c0,.27,0,.53,0,.79a17.78,17.78,0,0,0-12.53,17V234a8.64,8.64,0,0,0,.64,17,17.8,17.8,0,0,0,11.89,12.29c0,.26,0,.52,0,.79A8.65,8.65,0,0,0,70,264h38.64a8.64,8.64,0,0,0,15,0H132a17.75,17.75,0,0,0,12.57-5.2,8.64,8.64,0,1,0,5.21-16.29Z"/><path class="cls-9" d="M157,251a8.63,8.63,0,0,1-12.43,7.77A17.71,17.71,0,0,1,132,264h-8.37a8.64,8.64,0,0,1-15,0H70a8.65,8.65,0,0,1-17.3,0c0-.27,0-.53,0-.79a17.82,17.82,0,0,1-11.89-12.29,8.64,8.64,0,0,1-.64-17v-2.86c.21,0,.42.1.64.13a17.82,17.82,0,0,0,11.89,12.29c0,.26,0,.52,0,.79a8.65,8.65,0,0,0,17.3,0h38.64a8.64,8.64,0,0,0,15,0H132a17.71,17.71,0,0,0,12.56-5.2,8.85,8.85,0,0,0,5.22.76v2.64A8.64,8.64,0,0,1,157,251Z"/><circle class="cls-9" cx="107.96" cy="229.4" r="8.65"/><circle class="cls-10" cx="145.44" cy="223.64" r="8.65"/><circle class="cls-10" cx="66.15" cy="228.44" r="8.65"/><rect class="cls-3" x="355.51" y="203.62" width="16.55" height="57.36" rx="5.94"/><path class="cls-4" d="M367.92,260.77a4.65,4.65,0,0,1-1.4.21h-5.47c-3.07,0-5.54-2.85-5.54-6.37V210c0-3.53,2.47-6.38,5.54-6.38h5.47a5,5,0,0,1,1.4.21,6.28,6.28,0,0,0-4.14,6.17v44.61A6.27,6.27,0,0,0,367.92,260.77Z"/><circle class="cls-5" cx="336.88" cy="232.3" r="26.9"/><path class="cls-6" d="M346,257.62A26.9,26.9,0,1,1,346,207a26.92,26.92,0,0,0,0,50.64Z"/><circle class="cls-7" cx="346.01" cy="226.54" r="9.13"/><path class="cls-8" d="M314.31,242.51v-15a17.78,17.78,0,0,0-10.12-16,8.64,8.64,0,0,0-16.92-1.75H271.68a8.65,8.65,0,0,0-16.61,0H234.54a8.65,8.65,0,1,0-17.29,0,6.85,6.85,0,0,0,0,.79,17.79,17.79,0,0,0-12.54,17V234a8.64,8.64,0,0,0,.65,17,17.78,17.78,0,0,0,11.89,12.29,6.85,6.85,0,0,0,0,.79,8.65,8.65,0,1,0,17.29,0h38.65a8.64,8.64,0,0,0,15,0h8.37a17.71,17.71,0,0,0,12.56-5.2,8.64,8.64,0,1,0,5.22-16.29Z"/><path class="cls-9" d="M321.52,251a8.66,8.66,0,0,1-8.65,8.65,8.54,8.54,0,0,1-3.78-.88,17.72,17.72,0,0,1-12.56,5.2h-8.37a8.64,8.64,0,0,1-15,0H234.54a8.65,8.65,0,1,1-17.29,0c0-.27,0-.53,0-.79a17.81,17.81,0,0,1-11.88-12.29,8.64,8.64,0,0,1-.65-17v-2.86a6.23,6.23,0,0,0,.65.13,17.81,17.81,0,0,0,11.88,12.29c0,.26,0,.52,0,.79a8.65,8.65,0,1,0,17.29,0h38.65a8.64,8.64,0,0,0,15,0h8.37a17.72,17.72,0,0,0,12.56-5.2,8.85,8.85,0,0,0,5.22.76v2.64A8.65,8.65,0,0,1,321.52,251Z"/><circle class="cls-9" cx="272.5" cy="229.4" r="8.65"/><circle class="cls-10" cx="309.98" cy="223.64" r="8.65"/><circle class="cls-10" cx="230.7" cy="228.44" r="8.65"/><rect class="cls-2" x="335.13" y="171.25" width="144.73" height="16.1" rx="8.05"/><rect class="cls-3" x="165.17" y="150.62" width="16.55" height="57.36" rx="5.94"/><path class="cls-4" d="M177.58,207.77a4.65,4.65,0,0,1-1.4.21h-5.47c-3.07,0-5.54-2.85-5.54-6.37V157c0-3.53,2.47-6.38,5.54-6.38h5.47a5,5,0,0,1,1.4.21,6.28,6.28,0,0,0-4.14,6.17v44.61A6.27,6.27,0,0,0,177.58,207.77Z"/><circle class="cls-5" cx="146.54" cy="179.3" r="26.9"/><path class="cls-6" d="M155.67,204.62a26.9,26.9,0,1,1,0-50.64,26.92,26.92,0,0,0,0,50.64Z"/><circle class="cls-7" cx="155.67" cy="173.54" r="9.13"/><path class="cls-8" d="M124,189.51v-15a17.78,17.78,0,0,0-10.12-16,8.64,8.64,0,0,0-16.92-1.75H81.34a8.65,8.65,0,0,0-16.61,0H44.2a8.65,8.65,0,1,0-17.29,0,6.85,6.85,0,0,0,0,.79,17.79,17.79,0,0,0-12.54,17V181a8.64,8.64,0,0,0,.65,17A17.78,17.78,0,0,0,27,210.21a6.85,6.85,0,0,0,0,.79,8.65,8.65,0,1,0,17.29,0H82.85a8.64,8.64,0,0,0,15,0h8.37a17.71,17.71,0,0,0,12.56-5.2A8.64,8.64,0,1,0,124,189.51Z"/><path class="cls-9" d="M131.18,198a8.66,8.66,0,0,1-8.65,8.65,8.54,8.54,0,0,1-3.78-.88,17.72,17.72,0,0,1-12.56,5.2H97.82a8.64,8.64,0,0,1-15,0H44.2a8.65,8.65,0,1,1-17.29,0c0-.27,0-.53,0-.79a17.81,17.81,0,0,1-11.88-12.29,8.64,8.64,0,0,1-.65-17v-2.86c.21,0,.43.1.65.13a17.81,17.81,0,0,0,11.88,12.29c0,.26,0,.52,0,.79a8.65,8.65,0,1,0,17.29,0H82.85a8.64,8.64,0,0,0,15,0h8.37a17.72,17.72,0,0,0,12.56-5.2,8.85,8.85,0,0,0,5.22.76v2.64A8.65,8.65,0,0,1,131.18,198Z"/><circle class="cls-9" cx="82.16" cy="176.4" r="8.65"/><circle class="cls-10" cx="119.64" cy="170.64" r="8.65"/><circle class="cls-10" cx="40.36" cy="175.44" r="8.65"/><rect class="cls-3" x="329.71" y="150.62" width="16.55" height="57.36" rx="5.94"/><path class="cls-4" d="M342.13,207.77a4.7,4.7,0,0,1-1.4.21h-5.48c-3.06,0-5.54-2.85-5.54-6.37V157c0-3.53,2.48-6.38,5.54-6.38h5.48a5,5,0,0,1,1.4.21A6.27,6.27,0,0,0,338,157v44.61A6.25,6.25,0,0,0,342.13,207.77Z"/><circle class="cls-5" cx="311.09" cy="179.3" r="26.9"/><path class="cls-6" d="M320.22,204.62a27.18,27.18,0,0,1-9.14,1.59,26.91,26.91,0,0,1,0-53.81,27.17,27.17,0,0,1,9.14,1.58,26.91,26.91,0,0,0,0,50.64Z"/><circle class="cls-7" cx="320.22" cy="173.54" r="9.13"/><path class="cls-8" d="M288.52,189.51v-15a17.79,17.79,0,0,0-10.13-16,8.64,8.64,0,0,0-16.92-1.75H245.88a8.64,8.64,0,0,0-16.6,0H208.75a8.65,8.65,0,0,0-17.3,0c0,.27,0,.53,0,.79a17.78,17.78,0,0,0-12.53,17V181a8.64,8.64,0,0,0,.65,17,17.77,17.77,0,0,0,11.88,12.29c0,.26,0,.52,0,.79a8.65,8.65,0,0,0,17.3,0H247.4a8.64,8.64,0,0,0,15,0h8.38a17.74,17.74,0,0,0,12.56-5.2,8.64,8.64,0,1,0,5.22-16.29Z"/><path class="cls-9" d="M295.72,198a8.65,8.65,0,0,1-8.65,8.65,8.53,8.53,0,0,1-3.77-.88,17.72,17.72,0,0,1-12.56,5.2h-8.37a8.65,8.65,0,0,1-15,0H208.75a8.65,8.65,0,0,1-17.3,0c0-.27,0-.53,0-.79a17.82,17.82,0,0,1-11.89-12.29,8.64,8.64,0,0,1-.64-17v-2.86c.21,0,.42.1.64.13a17.82,17.82,0,0,0,11.89,12.29c0,.26,0,.52,0,.79a8.65,8.65,0,1,0,17.3,0h38.64a8.65,8.65,0,0,0,15,0h8.37a17.72,17.72,0,0,0,12.56-5.2,8.53,8.53,0,0,0,3.77.87,8.77,8.77,0,0,0,1.45-.11v2.64A8.65,8.65,0,0,1,295.72,198Z"/><circle class="cls-9" cx="246.71" cy="176.4" r="8.65"/><circle class="cls-10" cx="284.19" cy="170.64" r="8.65"/><circle class="cls-10" cx="204.91" cy="175.44" r="8.65"/><path class="cls-8" d="M489.85,360.29C449.93,449.69,360.24,512,256,512S62.07,449.69,22.15,360.29Z"/><circle class="cls-11" cx="309.98" cy="304.67" r="34.42"/><circle class="cls-12" cx="309.98" cy="304.67" r="26.76"/><path class="cls-13" d="M315.05,286.27a5.07,5.07,0,1,0-10.13-.17c-.05,2.79,2.12,8.27,4.92,8.32S315,289.07,315.05,286.27Z"/><path class="cls-13" d="M304.86,321.85A5.07,5.07,0,0,0,315,322c0-2.8-2.13-8.27-4.93-8.32S304.91,319.05,304.86,321.85Z"/><path class="cls-13" d="M328,309.15a5.07,5.07,0,0,0,.17-10.13c-2.8,0-8.27,2.13-8.32,4.92S325.18,309.1,328,309.15Z"/><path class="cls-13" d="M292.4,299a5.07,5.07,0,0,0-.18,10.13c2.8,0,8.28-2.13,8.33-4.93S295.2,299,292.4,299Z"/><path class="cls-13" d="M326.16,295.69a5.07,5.07,0,1,0-7-7.29c-2,2-4.34,7.35-2.4,9.37S324.15,297.64,326.16,295.69Z"/><path class="cls-13" d="M293.8,313.64a5.07,5.07,0,0,0,7.05,7.29c2-1.94,4.34-7.35,2.4-9.36S295.82,311.7,293.8,313.64Z"/><path class="cls-13" d="M319,320.85a5.07,5.07,0,0,0,7.29-7c-1.94-2-7.35-4.35-9.37-2.41S317,318.83,319,320.85Z"/><path class="cls-13" d="M301,288.49a5.07,5.07,0,1,0-7.29,7c1.94,2,7.35,4.35,9.36,2.4S303,290.5,301,288.49Z"/><path class="cls-14" d="M488.15,232.3h0a0,0,0,0,1,0,0v26.38a54.87,54.87,0,0,1-54.87,54.87h0a0,0,0,0,1,0,0V287.17A54.87,54.87,0,0,1,488.15,232.3Z"/><path class="cls-14" d="M447.27,247.24h0a0,0,0,0,1,0,0v20.33A42.29,42.29,0,0,1,405,309.87h0a0,0,0,0,1,0,0V289.53a42.29,42.29,0,0,1,42.29-42.29Z" transform="translate(-82.91 286.19) rotate(-34.03)"/><circle class="cls-15" cx="433.28" cy="298.12" r="14.91"/><path class="cls-16" d="M438.34,312.16a15.15,15.15,0,0,1-5.06.87,14.91,14.91,0,1,1,5.06-28.94,14.92,14.92,0,0,0,0,28.07Z"/><circle class="cls-17" cx="438.34" cy="294.93" r="5.06"/><circle class="cls-15" cx="402.44" cy="294.25" r="17.94"/><path class="cls-16" d="M408.53,311.13a17.94,17.94,0,1,1,0-33.76,17.94,17.94,0,0,0,0,33.76Z"/><circle class="cls-17" cx="408.53" cy="290.41" r="6.09"/><path class="cls-18" d="M125.58,310.5a2.22,2.22,0,0,1-2.18-2.35,47.2,47.2,0,0,1,94.28,1.63,2.22,2.22,0,0,1-2.26,2.28Z"/><path class="cls-19" d="M208.71,311.94a38.22,38.22,0,0,0-76.42-1.32Z"/><path class="cls-20" d="M175.89,282.87a4.9,4.9,0,0,0-9.79-.17c0,2.71,2.05,8,4.75,8S175.84,285.58,175.89,282.87Z"/><path class="cls-20" d="M141.94,299.39a4.9,4.9,0,0,0-.17,9.79c2.7,0,8-2.06,8-4.76S144.64,299.43,141.94,299.39Z"/><path class="cls-20" d="M155.56,285.82a4.89,4.89,0,1,0-6.69,7.14c2,1.85,7.3,3.84,9.15,1.87S157.53,287.67,155.56,285.82Z"/><path class="cls-20" d="M200,300.39a4.9,4.9,0,1,1-.17,9.79c-2.7,0-7.91-2.33-7.87-5S197.28,300.35,200,300.39Z"/><path class="cls-20" d="M186.84,286.36a4.89,4.89,0,1,1,6.44,7.37c-2,1.78-7.43,3.59-9.21,1.55S184.81,288.14,186.84,286.36Z"/><rect class="cls-21" x="14.35" y="310.35" width="483.3" height="50.5" rx="25.25"/><path class="cls-22" d="M497.65,335a25.25,25.25,0,0,1-25.25,25.25H39.6a25.24,25.24,0,0,1-21.86-37.87A25.21,25.21,0,0,0,39.6,335H472.4a25.22,25.22,0,0,0,21.86-12.62A25,25,0,0,1,497.65,335Z"/></g></svg>