<svg xmlns="http://www.w3.org/2000/svg" viewBox="0 0 512 512"><defs><style>.cls-1{fill:#313d74;}.cls-2{fill:#ad7d55;}.cls-3{fill:#76c27d;}.cls-4{fill:#6aaa6e;}.cls-5{fill:#dd9e2a;}.cls-6{fill:#c88d28;}.cls-7{fill:#b57f26;}.cls-8{fill:#a06e25;}.cls-9{fill:#854538;}.cls-10{fill:#773d35;}.cls-11{fill:#fff;}.cls-12{fill:#f1ce34;}.cls-13{fill:#d9bb31;}.cls-14{fill:#db3a46;}.cls-15{fill:#c7c7c7;}.cls-16{fill:#d4d4d4;}</style></defs><title>Food</title><g id="BULINE"><circle class="cls-1" cx="256" cy="256" r="256"/></g><g id="Icons"><path class="cls-2" d="M486.56,367.37a256.13,256.13,0,0,1-461.12,0Z"/><path class="cls-3" d="M101.83,172.78c10.55,16.2,11.08,34.56,1.18,41s-26.48-1.46-37-17.67c-7-10.72-5.24-25.22-3.27-33.79a8.17,8.17,0,0,1,9.52-6.2C80.88,157.78,94.84,162.05,101.83,172.78Z"/><path class="cls-4" d="M108.37,207.2a14.42,14.42,0,0,1-5.36,6.59c-9.9,6.45-26.48-1.46-37-17.67-7-10.72-5.24-25.22-3.27-33.79a8.18,8.18,0,0,1,9.52-6.21c1,.21,2.17.44,3.35.73-1.58,8.67-2.19,21,4,30.45C87.53,199.57,99,207.09,108.37,207.2Z"/><path class="cls-5" d="M290,212.94a96.83,96.83,0,0,0-193.66,0Z"/><path class="cls-6" d="M266.18,212.94a73,73,0,1,0-146.07,0Z"/><path class="cls-7" d="M241.4,212.94a48.26,48.26,0,1,0-96.51,0Z"/><path class="cls-8" d="M222,212.94a28.81,28.81,0,0,0-57.61,0Z"/><path class="cls-9" d="M160.31,179.26c0,4-2.44,8.29-1.27,11.87s5.75,5.77,8,8.87,2.84,8.07,6,10.34,8,1.27,11.68,2.48,6.93,4.86,10.91,4.86,7.32-3.69,10.91-4.86,8.58-.23,11.67-2.48,3.69-7.22,6-10.34,6.79-5.15,8-8.87-1.27-7.9-1.27-11.87,2.43-8.29,1.27-11.88-5.75-5.77-8-8.86-2.84-8.07-6-10.35-8-1.27-11.68-2.48-6.93-4.85-10.9-4.85-7.32,3.69-10.91,4.85-8.58.23-11.68,2.48-3.68,7.22-6,10.35-6.79,5.14-8,8.86S160.31,175.28,160.31,179.26Z"/><path class="cls-10" d="M201.12,212.82a14.9,14.9,0,0,1,2.69,1.27c-2.63,1.53-5.25,3.59-8.22,3.59-4,0-7.32-3.69-10.91-4.86s-8.58-.22-11.68-2.48-3.69-7.22-6-10.34-6.79-5.15-8-8.87,1.27-7.9,1.27-11.87S157.87,171,159,167.38s5.75-5.77,8-8.86,2.84-8.07,6-10.35,8-1.27,11.68-2.48,6.93-4.85,10.91-4.85c3,0,5.59,2.06,8.22,3.58a13.66,13.66,0,0,1-2.69,1.27c-3.72,1.21-8.59.23-11.68,2.48s-3.69,7.22-6,10.35-6.8,5.14-8,8.86,1.27,7.9,1.27,11.88-2.43,8.29-1.27,11.87,5.76,5.77,8,8.87,2.83,8.07,6,10.34S197.4,211.62,201.12,212.82Z"/><circle class="cls-10" cx="207.72" cy="161.19" r="6.44"/><circle class="cls-10" cx="188.02" cy="179.25" r="6.75"/><circle class="cls-10" cx="214.16" cy="190.41" r="6.78"/><path class="cls-11" d="M252.85,196.34a6,6,0,0,0-1.84-8.08l-38.93-26.48a5.67,5.67,0,0,1-1.74-7.65,5.52,5.52,0,0,1,7.76-1.61l39.32,26.74a5.82,5.82,0,0,0,8.09-1.54l2-2.87a5.83,5.83,0,0,0-1.54-8.1l-39.12-26.61a5.68,5.68,0,0,1-1.75-7.66,5.51,5.51,0,0,1,7.76-1.6l39.12,26.6a6,6,0,0,0,8.19-1.26,5.82,5.82,0,0,0-1.44-8.24l-46.94-31.93a30.18,30.18,0,0,0-22.23-4.78,28.93,28.93,0,0,1-21.88-4.73L51.8,10.14a16.63,16.63,0,0,0-23.38,4.22h0a16.62,16.62,0,0,0,4.67,23.29l139.8,91.07A28.68,28.68,0,0,1,185.26,147a31.13,31.13,0,0,0,12.94,19.46L244.65,198A5.82,5.82,0,0,0,252.85,196.34Z"/><path class="cls-3" d="M449.68,191.11C439,207.24,422.38,215,412.53,208.52s-9.2-24.87,1.47-41c7.06-10.68,21.05-14.85,29.7-16.45a8.18,8.18,0,0,1,9.48,6.27C455.1,165.93,456.74,180.43,449.68,191.11Z"/><path class="cls-4" d="M420.71,210.82a14.49,14.49,0,0,1-8.18-2.3c-9.86-6.52-9.2-24.87,1.47-41,7.05-10.68,21.05-14.85,29.7-16.45a8.18,8.18,0,0,1,9.48,6.27c.23,1,.46,2.16.67,3.35-8.58,2-20.16,6.36-26.36,15.75C419.41,188.66,417.07,202.16,420.71,210.82Z"/><path class="cls-3" d="M420.21,152c1.33,19.29-7.15,35.59-18.93,36.4s-22.42-14.17-23.74-33.46c-.88-12.77,7.7-24.58,13.6-31.11a8.17,8.17,0,0,1,11.33-.78C409.22,128.69,419.33,139.21,420.21,152Z"/><path class="cls-4" d="M409.17,185.24a14.49,14.49,0,0,1-7.89,3.14c-11.79.81-22.42-14.17-23.74-33.46-.88-12.77,7.7-24.58,13.6-31.11a8.17,8.17,0,0,1,11.34-.78c.81.68,1.68,1.43,2.57,2.26-5.61,6.8-12.15,17.29-11.38,28.52C394.68,168.42,401,180.57,409.17,185.24Z"/><path class="cls-12" d="M416.35,212.94a96.83,96.83,0,0,0-193.66,0Z"/><path class="cls-13" d="M392.55,212.94a73,73,0,1,0-146.07,0Z"/><path class="cls-5" d="M367.77,212.94a48.26,48.26,0,1,0-96.51,0Z"/><path class="cls-6" d="M348.32,212.94a28.81,28.81,0,0,0-57.61,0Z"/><rect class="cls-12" x="133.79" y="201.04" width="271.76" height="23.8"/><rect class="cls-13" x="133.79" y="224.48" width="271.76" height="23.8"/><rect class="cls-5" x="133.79" y="247.45" width="271.76" height="23.8"/><rect class="cls-6" x="133.79" y="270.89" width="271.76" height="23.8"/><path class="cls-12" d="M230.62,295.87a96.84,96.84,0,0,0-193.67,0Z"/><path class="cls-13" d="M206.82,295.87a73,73,0,0,0-146.07,0Z"/><path class="cls-5" d="M182,295.87a48.26,48.26,0,0,0-96.51,0Z"/><path class="cls-6" d="M162.59,295.87a28.81,28.81,0,0,0-57.61,0Z"/><path class="cls-12" d="M488.38,295.87a96.84,96.84,0,0,0-193.67,0Z"/><path class="cls-13" d="M464.58,295.87a73,73,0,0,0-146.07,0Z"/><path class="cls-5" d="M439.8,295.87a48.26,48.26,0,0,0-96.51,0Z"/><path class="cls-6" d="M420.35,295.87a28.81,28.81,0,0,0-57.61,0Z"/><path class="cls-9" d="M394.41,265.37c0,4-2.43,8.29-1.26,11.88s5.75,5.77,8,8.86,2.84,8.07,6,10.35,8,1.27,11.68,2.48,6.93,4.85,10.91,4.85,7.32-3.69,10.9-4.85,8.59-.23,11.68-2.48,3.69-7.22,6-10.35,6.8-5.14,8-8.86-1.27-7.9-1.27-11.88,2.43-8.28,1.27-11.87-5.75-5.77-8-8.86-2.83-8.08-6-10.35-8-1.27-11.68-2.48S433.67,227,429.7,227s-7.32,3.69-10.91,4.86-8.58.23-11.68,2.48-3.69,7.22-6,10.35-6.8,5.14-8,8.86S394.41,261.4,394.41,265.37Z"/><path class="cls-10" d="M435.22,298.94a13.4,13.4,0,0,1,2.69,1.27c-2.63,1.53-5.25,3.58-8.21,3.58-4,0-7.32-3.69-10.91-4.85s-8.59-.23-11.68-2.48-3.69-7.22-6-10.35-6.79-5.14-8-8.86,1.27-7.9,1.27-11.88-2.44-8.28-1.27-11.87,5.75-5.77,8-8.86,2.83-8.08,6-10.35,8-1.27,11.68-2.48S425.72,227,429.7,227c3,0,5.58,2,8.21,3.58a14,14,0,0,1-2.69,1.27c-3.71,1.21-8.58.23-11.68,2.48s-3.68,7.22-6,10.35-6.8,5.14-8,8.86,1.27,7.9,1.27,11.87-2.43,8.29-1.27,11.88,5.75,5.77,8,8.86,2.83,8.07,6,10.35S431.51,297.73,435.22,298.94Z"/><circle class="cls-10" cx="441.83" cy="247.31" r="6.44"/><circle class="cls-10" cx="422.12" cy="265.37" r="6.75"/><circle class="cls-10" cx="448.27" cy="276.53" r="6.78"/><path class="cls-14" d="M319.52,115.68a96.79,96.79,0,0,0-84,48.57v15.1a12.5,12.5,0,0,0,12.72,12.49,12.76,12.76,0,0,0,12.27-12.9v-18a12.5,12.5,0,0,1,25,0v18a12.77,12.77,0,0,0,12.28,12.9,12.49,12.49,0,0,0,12.71-12.49v-18A12.78,12.78,0,0,1,322.8,148.4a12.49,12.49,0,0,1,12.72,12.5v18a12.79,12.79,0,0,0,12.26,12.92,12.5,12.5,0,0,0,12.74-12.49V160.9a12.5,12.5,0,1,1,25,0v21.66a9.18,9.18,0,0,0,8.4,9.26,9,9,0,0,0,9.57-9V170.37a21.25,21.25,0,0,0-3.58-11.87A96.71,96.71,0,0,0,319.52,115.68Z"/><path class="cls-14" d="M133.74,198.29a96.79,96.79,0,0,0-84,48.57V262a12.49,12.49,0,0,0,12.72,12.49,12.75,12.75,0,0,0,12.27-12.89V243.51a12.5,12.5,0,0,1,25,0v18.05A12.76,12.76,0,0,0,112,274.45,12.48,12.48,0,0,0,124.75,262v-18A12.77,12.77,0,0,1,137,231a12.49,12.49,0,0,1,12.72,12.49v18A12.77,12.77,0,0,0,162,274.45,12.49,12.49,0,0,0,174.74,262V243.51a12.5,12.5,0,1,1,25,0v21.66a9.18,9.18,0,0,0,8.4,9.27,9,9,0,0,0,9.57-9V253a21.2,21.2,0,0,0-3.58-11.86A96.71,96.71,0,0,0,133.74,198.29Z"/><path class="cls-9" d="M92.76,270.89c0,4-2.43,8.29-1.27,11.87s5.75,5.77,8,8.87,2.84,8.07,6,10.34,8,1.28,11.68,2.48,6.93,4.86,10.91,4.86,7.32-3.69,10.91-4.86,8.58-.23,11.67-2.48,3.69-7.22,6-10.34,6.79-5.15,8-8.87-1.27-7.9-1.27-11.87,2.43-8.29,1.27-11.88-5.75-5.77-8-8.86-2.84-8.07-6-10.35-8-1.27-11.67-2.48S132,232.47,128,232.47s-7.32,3.69-10.91,4.85-8.58.23-11.68,2.48-3.68,7.22-6,10.35-6.79,5.14-8,8.86S92.76,266.91,92.76,270.89Z"/><path class="cls-10" d="M133.57,304.45a14.31,14.31,0,0,1,2.69,1.28c-2.63,1.52-5.25,3.58-8.22,3.58-4,0-7.32-3.69-10.91-4.86s-8.58-.22-11.67-2.48-3.7-7.22-6-10.34-6.79-5.15-8-8.87,1.27-7.9,1.27-11.87S90.32,262.6,91.49,259s5.75-5.77,8-8.86,2.84-8.07,6-10.35,8-1.27,11.67-2.48,6.93-4.85,10.91-4.85c3,0,5.59,2.06,8.22,3.58a13.66,13.66,0,0,1-2.69,1.27c-3.72,1.21-8.59.23-11.68,2.48s-3.69,7.22-6,10.35-6.8,5.14-8,8.86,1.27,7.9,1.27,11.88-2.43,8.29-1.27,11.87,5.76,5.77,8,8.87,2.83,8.07,6,10.34S129.85,303.25,133.57,304.45Z"/><circle class="cls-10" cx="140.17" cy="252.83" r="6.44"/><circle class="cls-10" cx="120.47" cy="270.88" r="6.75"/><circle class="cls-10" cx="146.61" cy="282.04" r="6.78"/><path class="cls-3" d="M54.74,255.24c16.79,9.58,25.67,25.66,19.82,35.93s-24.22,10.81-41,1.24c-11.12-6.34-16.21-20-18.37-28.56A8.17,8.17,0,0,1,20.8,254C29.25,251.5,43.62,248.9,54.74,255.24Z"/><path class="cls-4" d="M76.31,282.85a14.36,14.36,0,0,1-1.75,8.31c-5.86,10.27-24.22,10.82-41,1.25-11.12-6.34-16.2-20-18.38-28.56A8.18,8.18,0,0,1,20.8,254c1-.3,2.13-.61,3.31-.89,2.56,8.43,7.67,19.69,17.45,25.26C54.29,285.61,67.91,287.05,76.31,282.85Z"/><path class="cls-3" d="M105,265.91c-.13,19.34-9.82,34.95-21.63,34.86S62.07,285,62.2,265.62c.09-12.8,9.54-23.93,15.92-30a8.18,8.18,0,0,1,11.36.08C95.77,241.85,105.07,253.11,105,265.91Z"/><path class="cls-4" d="M91.46,298.24a14.48,14.48,0,0,1-8.11,2.53C71.53,300.69,62.07,285,62.2,265.62c.09-12.8,9.54-23.93,15.92-30a8.18,8.18,0,0,1,11.36.08c.76.74,1.57,1.56,2.39,2.45-6.1,6.36-13.42,16.33-13.49,27.58C78.28,280.38,83.68,293,91.46,298.24Z"/><path class="cls-15" d="M119.21,352.87h267a0,0,0,0,1,0,0v0a22.5,22.5,0,0,1-22.5,22.5h-222a22.5,22.5,0,0,1-22.5-22.5v0A0,0,0,0,1,119.21,352.87Z"/><path class="cls-11" d="M443.74,352.87h-377a51,51,0,0,1-49.77-40l-1.8-8.16a8.5,8.5,0,0,1,8.29-10.32H487a8.49,8.49,0,0,1,8.29,10.32l-1.79,8.16A51,51,0,0,1,443.74,352.87Z"/><path class="cls-16" d="M186.69,352.87h-120a51,51,0,0,1-49.78-40l-1.79-8.17a8.49,8.49,0,0,1,8.29-10.31h120a8.49,8.49,0,0,0-8.29,10.31l1.79,8.17A51,51,0,0,0,186.69,352.87Z"/></g></svg>