<svg xmlns="http://www.w3.org/2000/svg" viewBox="0 0 512 512"><defs><style>.cls-1{fill:#76c27d;}.cls-2{fill:#f7eddd;}.cls-3{fill:#dcc9a7;}.cls-4{fill:#f0e0c8;}.cls-5{fill:#f1d7ac;}.cls-6{fill:#c8b69a;}.cls-7{fill:#eccca0;}.cls-8{fill:#f6e0b8;}.cls-9{fill:#ad7d55;}.cls-10{fill:#9a7250;}.cls-11{fill:#e5a95e;}.cls-12{fill:#ca9353;}.cls-13{fill:#ca9657;}.cls-14{fill:#b4834f;}.cls-15{fill:#313d74;}</style></defs><title>Food</title><g id="BULINE"><circle class="cls-1" cx="256" cy="256" r="256"/></g><g id="Icons"><path class="cls-2" d="M328.73,159.41c-31.74,18.73-52.68,41.94-65,68.72H410.6c-11.94-24.1-32.5-47.08-65.46-68.45A15.62,15.62,0,0,0,328.73,159.41Z"/><rect class="cls-3" x="350.76" y="167.14" width="11.96" height="24.5" rx="5.92" transform="translate(-22.36 304.8) rotate(-45)"/><path class="cls-4" d="M348.14,161.65l2.09-4.74a3.82,3.82,0,0,0-3.5-5.36H327.58a3.82,3.82,0,0,0-3.5,5.36l1.84,4.19c-30.16,18.43-50.23,41.05-62.21,67h30.68c11.32-24.57,29.89-46.13,57.4-64C350.59,163.3,349.37,162.48,348.14,161.65Z"/><rect class="cls-3" x="331.17" y="163.56" width="11.96" height="25.85" rx="5.53"/><rect class="cls-3" x="308.11" y="166.91" width="11.96" height="26.1" rx="5.98" transform="translate(408.94 529.3) rotate(-135)"/><path class="cls-5" d="M161.23,159.41c-31.74,18.73-52.68,41.94-65,68.72H243.1c-11.94-24.1-32.5-47.08-65.46-68.45A15.62,15.62,0,0,0,161.23,159.41Z"/><rect class="cls-6" x="183.26" y="167.14" width="11.96" height="24.5" rx="5.92" transform="translate(-71.42 186.36) rotate(-45)"/><path class="cls-7" d="M181,161.89l2.2-5a3.82,3.82,0,0,0-3.5-5.36H160.54a3.82,3.82,0,0,0-3.5,5.36l1.75,4c-30.37,18.47-50.55,41.17-62.58,67.24h30.68c11.32-24.57,29.89-46.13,57.4-64C183.21,163.38,182.11,162.63,181,161.89Z"/><rect class="cls-6" x="163.67" y="163.56" width="11.96" height="25.85" rx="5.53"/><rect class="cls-6" x="140.61" y="166.91" width="11.96" height="26.1" rx="5.98" transform="translate(123 410.86) rotate(-135)"/><path class="cls-8" d="M245.58,159.41c-31.74,18.73-52.67,41.94-65,68.72H327.45C315.51,204,295,181.05,262,159.68A15.64,15.64,0,0,0,245.58,159.41Z"/><rect class="cls-3" x="267.62" y="167.14" width="11.96" height="24.5" rx="5.92" transform="translate(-46.71 246.01) rotate(-45)"/><path class="cls-5" d="M265,161.65l2.09-4.74a3.82,3.82,0,0,0-3.5-5.36H244.43a3.82,3.82,0,0,0-3.5,5.36l1.85,4.19c-30.17,18.43-50.24,41.05-62.22,67h30.68c11.33-24.57,29.89-46.13,57.4-64C267.45,163.3,266.23,162.48,265,161.65Z"/><rect class="cls-3" x="248.03" y="163.56" width="11.96" height="25.85" rx="5.53"/><rect class="cls-3" x="224.96" y="166.91" width="11.96" height="26.1" rx="5.98" transform="translate(267 470.51) rotate(-135)"/><path class="cls-9" d="M80.62,400.34H427.4a0,0,0,0,1,0,0v14.45a15.61,15.61,0,0,1-15.61,15.61H96.22a15.61,15.61,0,0,1-15.61-15.61V400.34a0,0,0,0,1,0,0Z"/><path class="cls-9" d="M96.22,226.95H411.79a15.61,15.61,0,0,1,15.61,15.61V257a0,0,0,0,1,0,0H80.62a0,0,0,0,1,0,0V242.55A15.61,15.61,0,0,1,96.22,226.95Z"/><path class="cls-10" d="M172.28,430.39H96.22a15.6,15.6,0,0,1-15.6-15.61V400.34h76.06v14.44A15.6,15.6,0,0,0,172.28,430.39Z"/><path class="cls-10" d="M172.28,227a15.6,15.6,0,0,0-15.6,15.6V257H80.62V242.55A15.6,15.6,0,0,1,96.22,227Z"/><rect class="cls-11" x="49.41" y="256.42" width="409.2" height="143.91" rx="18.21"/><rect class="cls-12" x="76.57" y="280.12" width="354.87" height="24.27" rx="12.14"/><rect class="cls-12" x="76.57" y="343.12" width="354.87" height="24.27" rx="12.14"/><path class="cls-13" d="M143,400.34H67.61a18.2,18.2,0,0,1-18.2-18.21V274.63a18.2,18.2,0,0,1,18.2-18.21H143a18.2,18.2,0,0,0-18.2,18.21v107.5A18.2,18.2,0,0,0,143,400.34Z"/><path class="cls-14" d="M124.81,280.12v24.27H88.71a12.14,12.14,0,0,1,0-24.27Z"/><path class="cls-14" d="M124.81,343.12v24.27H88.71a12.14,12.14,0,0,1,0-24.27Z"/><path class="cls-15" d="M443.41,430.39l-1.9,2a255.86,255.86,0,0,1-371,0c-.64-.67-1.27-1.35-1.9-2Z"/><path class="cls-8" d="M246,7.51c-6.94,8.39-22.08,32.65-.83,66.54A87.2,87.2,0,0,1,256,98.31c3.14,12.06,4.36,27.37-4.8,37.68a.51.51,0,0,0,.62.79l.31-.17a50,50,0,0,0,18.19-70C261.67,52.57,249.62,29.39,249,8.53A1.67,1.67,0,0,0,246,7.51Z"/><path class="cls-8" d="M329.1,32.61c-5.59,6.75-17.79,26.31-.67,53.62a70.43,70.43,0,0,1,8.69,19.56c2.53,9.71,3.51,22-3.87,30.37a.41.41,0,0,0,.5.63l.25-.13a40.33,40.33,0,0,0,14.66-56.41c-7-11.33-16.67-30-17.19-46.83A1.34,1.34,0,0,0,329.1,32.61Z"/><path class="cls-8" d="M153,32.61c-5.6,6.75-17.8,26.31-.67,53.62a70.43,70.43,0,0,1,8.69,19.56c2.53,9.71,3.51,22-3.87,30.37a.41.41,0,0,0,.5.63l.25-.13a40.33,40.33,0,0,0,14.66-56.41c-7-11.33-16.67-30-17.19-46.83A1.34,1.34,0,0,0,153,32.61Z"/></g></svg>